<?xml version="1.0" encoding="UTF-8" standalone="no"?>
<!-- Created with Inkscape (http://www.inkscape.org/) -->

<svg
   xmlns:dc="http://purl.org/dc/elements/1.1/"
   xmlns:cc="http://creativecommons.org/ns#"
   xmlns:rdf="http://www.w3.org/1999/02/22-rdf-syntax-ns#"
   xmlns:svg="http://www.w3.org/2000/svg"
   xmlns="http://www.w3.org/2000/svg"
   xmlns:sodipodi="http://sodipodi.sourceforge.net/DTD/sodipodi-0.dtd"
   xmlns:inkscape="http://www.inkscape.org/namespaces/inkscape"
   width="291.18597mm"
   height="69.1147mm"
   viewBox="0 0 291.18597 69.114701"
   version="1.1"
   id="svg8"
   sodipodi:docname="miCertify.svg"
   inkscape:version="0.92.1 r15371">
  <defs
     id="defs2" />
  <sodipodi:namedview
     id="base"
     pagecolor="#ffffff"
     bordercolor="#666666"
     borderopacity="1.0"
     inkscape:pageopacity="0.0"
     inkscape:pageshadow="2"
     inkscape:zoom="0.7"
     inkscape:cx="265.88331"
     inkscape:cy="-149.66526"
     inkscape:document-units="mm"
     inkscape:current-layer="layer1"
     showgrid="false"
     fit-margin-top="10"
     fit-margin-left="10"
     fit-margin-right="10"
     fit-margin-bottom="10"
     inkscape:measure-start="0,0"
     inkscape:measure-end="0,0"
     inkscape:window-width="1920"
     inkscape:window-height="1137"
     inkscape:window-x="1032"
     inkscape:window-y="1272"
     inkscape:window-maximized="1" />
  <metadata
     id="metadata5">
    <rdf:RDF>
      <cc:Work
         rdf:about="">
        <dc:format>image/svg+xml</dc:format>
        <dc:type
           rdf:resource="http://purl.org/dc/dcmitype/StillImage" />
        <dc:title></dc:title>
      </cc:Work>
    </rdf:RDF>
  </metadata>
  <g
     inkscape:label="Layer 1"
     inkscape:groupmode="layer"
     id="layer1"
     transform="translate(51.247555,-45.547839)">
    <g
       aria-label="Certify"
       transform="matrix(1.3287317,0,0,1.2679472,-176.3185,-378.8625)"
       style="font-style:normal;font-weight:normal;font-size:40px;line-height:1.25;font-family:sans-serif;letter-spacing:0px;word-spacing:0px;fill:#000000;fill-opacity:1;stroke:none"
       id="flowRoot26">
      <path
         d="m 166.85547,373.86431 q -3.24219,0 -5.9961,-0.95703 -2.73437,-0.95704 -4.70703,-2.85157 -1.97265,-1.89453 -3.0664,-4.72656 -1.07422,-2.83203 -1.07422,-6.54297 0,-3.45703 1.03515,-6.26953 1.03516,-2.8125 3.00782,-4.82422 1.89453,-1.93359 4.6875,-2.98828 2.8125,-1.05469 6.13281,-1.05469 1.83594,0 3.30078,0.21485 1.48438,0.19531 2.73438,0.52734 1.30859,0.37109 2.36328,0.83984 1.07422,0.44922 1.875,0.83985 v 7.05078 h -0.85938 q -0.54687,-0.46875 -1.38672,-1.11328 -0.82031,-0.64453 -1.875,-1.26953 -1.07422,-0.625 -2.32422,-1.05469 -1.25,-0.42969 -2.67578,-0.42969 -1.58203,0 -3.00781,0.50781 -1.42578,0.48829 -2.63672,1.64063 -1.15234,1.11328 -1.875,2.94922 -0.70312,1.83594 -0.70312,4.45312 0,2.73438 0.76172,4.57032 0.78125,1.83593 1.95312,2.89062 1.19141,1.07422 2.65625,1.54297 1.46484,0.44922 2.89063,0.44922 1.36718,0 2.69531,-0.41016 1.34765,-0.41015 2.48047,-1.11328 0.95703,-0.56641 1.77734,-1.21094 0.82031,-0.64453 1.34766,-1.11328 h 0.78125 v 6.95313 q -1.09375,0.48828 -2.08985,0.91797 -0.99609,0.42968 -2.08984,0.74218 -1.42578,0.41016 -2.67578,0.625 -1.25,0.21485 -3.4375,0.21485 z"
         style="fill:#0088e8"
         id="path127" />
      <path
         d="M 203.90625,363.62993 H 187.8125 q 0.15625,2.57813 1.95312,3.94531 1.81641,1.36719 5.33204,1.36719 2.22656,0 4.3164,-0.80078 2.08985,-0.80078 3.30078,-1.71875 h 0.78125 v 5.64453 q -2.38281,0.95703 -4.49218,1.38672 -2.10938,0.42969 -4.66797,0.42969 -6.60157,0 -10.11719,-2.96875 -3.51563,-2.96875 -3.51563,-8.45703 0,-5.42969 3.32032,-8.59375 3.33984,-3.1836 9.14062,-3.1836 5.35156,0 8.04688,2.71485 2.69531,2.69531 2.69531,7.77343 z m -6.99219,-4.12109 q -0.0586,-2.20703 -1.09375,-3.32031 -1.03515,-1.11329 -3.22265,-1.11329 -2.03125,0 -3.33985,1.05469 -1.30859,1.05469 -1.46484,3.37891 z"
         style="fill:#0088e8"
         id="path129" />
      <path
         d="m 224.76562,358.06353 h -0.625 q -0.44921,-0.15625 -1.44531,-0.23438 -0.99609,-0.0781 -1.66015,-0.0781 -1.50391,0 -2.65625,0.19531 -1.15235,0.19531 -2.48047,0.66406 v 14.6875 h -7.03125 v -21.93359 h 7.03125 v 3.22265 q 2.32422,-1.99218 4.04297,-2.63672 1.71875,-0.66406 3.16406,-0.66406 0.37109,0 0.83984,0.0195 0.46875,0.0195 0.82031,0.0586 z"
         style="fill:#0088e8"
         id="path131" />
      <path
         d="m 242.8125,373.10259 q -1.13281,0.29297 -2.40234,0.44922 -1.26954,0.17578 -3.10547,0.17578 -4.10157,0 -6.11328,-1.66016 -1.99219,-1.66015 -1.99219,-5.68359 v -10.25391 h -2.89063 v -4.76562 h 2.89063 v -6.26953 h 7.03125 v 6.26953 h 6.58203 v 4.76562 h -6.58203 v 7.77344 q 0,1.15234 0.0195,2.01172 0.0195,0.85937 0.3125,1.54297 0.27344,0.68359 0.95703,1.09375 0.70313,0.39062 2.03125,0.39062 0.54688,0 1.42578,-0.23437 0.89844,-0.23438 1.25,-0.42969 h 0.58594 z"
         style="fill:#0088e8"
         id="path133" />
      <path
         d="m 254.02344,373.2979 h -7.03125 v -21.93359 h 7.03125 z m 0.19531,-25.05859 h -7.42188 v -5.33203 h 7.42188 z"
         style="fill:#0088e8"
         id="path135" />
      <path
         d="m 274.88281,348.06353 h -0.52734 q -0.46875,-0.13672 -1.23047,-0.3125 -0.74219,-0.17579 -1.60156,-0.17579 -2.07032,0 -2.8125,0.74219 -0.72266,0.74219 -0.72266,2.8711 v 0.17578 h 5.42969 v 4.76562 h -5.19531 v 17.16797 h -7.03125 v -17.16797 h -3.00782 v -4.76562 h 3.00782 v -0.60547 q 0,-4.02344 2.1289,-6.03516 2.14844,-2.01172 6.48438,-2.01172 1.5625,0 2.83203,0.11719 1.26953,0.0977 2.24609,0.27344 z"
         style="fill:#0088e8"
         id="path137" />
      <path
         d="m 287.44141,365.54399 5,-14.17968 h 7.22656 l -12.1875,29.98047 h -7.61719 l 3.47656,-8.20313 -8.53515,-21.77734 h 7.38281 z"
         style="fill:#0088e8"
         id="path139" />
    </g>
    <text
       xml:space="preserve"
       style="font-style:normal;font-weight:normal;font-size:4.12248707px;line-height:1.25;font-family:sans-serif;letter-spacing:0px;word-spacing:0px;fill:#828282;fill-opacity:1;stroke:none;stroke-width:0.10306215"
       x="234.52597"
       y="62.521465"
       id="text46"
       transform="scale(0.95885229,1.0429135)"><tspan
         sodipodi:role="line"
         id="tspan44"
         x="234.52597"
         y="62.521465"
         style="fill:#828282;stroke-width:0.10306215">tm</tspan></text>
    <g
       aria-label="Mi"
       transform="matrix(1.3287317,0,0,1.2679472,-245.48815,-379.24048)"
       style="font-style:normal;font-weight:normal;font-size:40px;line-height:1.25;font-family:sans-serif;letter-spacing:0px;word-spacing:0px;fill:#000000;fill-opacity:1;stroke:none"
       id="flowRoot62">
      <path
         d="m 184.19922,373.2979 h -7.46094 v -19.47266 l -5.39062,12.63672 h -5.17579 l -5.39062,-12.63672 v 19.47266 h -7.07031 v -29.08203 h 8.71093 l 6.54297,14.58984 6.52344,-14.58984 h 8.71094 z"
         style="fill:#69b628"
         id="path122" />
      <path
         d="m 198.24219,373.2979 h -7.03125 v -21.93359 h 7.03125 z m 0.19531,-25.05859 h -7.42188 v -5.33203 h 7.42188 z"
         style="fill:#69b628"
         id="path124" />
    </g>
  </g>
</svg>
